<svg xmlns="http://www.w3.org/2000/svg" width="13" height="8" viewBox="0 0 13 8">
  <path fill="#010101" fill-rule="evenodd" d="M5.92957006,3 L12,3 C12.5522847,3 13,3.44771525 13,4 C13,4.55228475 12.5522847,5 12,5 L5.92957006,5 L5.92957006,7.02769181 C5.92957006,7.57997656 5.48185481,8.02769181 4.92957006,8.02769181 C4.71702999,8.02769181 4.51001776,7.9599735 4.33856805,7.83436189 L0.619061393,5.1092876 C0.0398963326,4.68496578 -0.0856289179,3.87147893 0.338692899,3.29231387 C0.422032851,3.17856156 0.523325383,3.0791266 0.638600574,2.99790612 L4.35359819,0.380396725 C4.80507413,0.0622962439 5.42893909,0.17041842 5.74703957,0.621894365 C5.8658157,0.7904718 5.92957006,0.991647617 5.92957006,1.19786624 L5.92957006,3 Z"/>
</svg>
