<svg xmlns="http://www.w3.org/2000/svg" width="36" height="36" viewBox="0 0 36 36">
  <g fill="none" fill-rule="evenodd">
    <rect width="36" height="36" fill="#F2F5F5" rx="18"/>
    <path fill="#D0D6D6" d="M18.2855172,16.5130969 L18.2855172,14.2925849 C18.2855172,14.0348116 18.3652102,13.7833418 18.5136804,13.57262 C18.911306,13.0082751 19.6911371,12.8731224 20.2554821,13.270748 L24.840867,16.5015141 C24.984961,16.6030397 25.1115767,16.7273333 25.2157516,16.8695237 C25.7461539,17.5934801 25.5892473,18.6103386 24.865291,19.1407409 L20.2742698,22.5043251 C20.0599576,22.6613397 19.8011923,22.7459875 19.5355172,22.7459875 C18.8451613,22.7459875 18.2855172,22.1863435 18.2855172,21.4959875 L18.2855172,18.9958555 L10.5517241,18.9958555 C9.86612928,18.9958555 9.31034483,18.4400711 9.31034483,17.7544762 C9.31034483,17.0688814 9.86612928,16.5130969 10.5517241,16.5130969 L18.2855172,16.5130969 Z"/>
  </g>
</svg>
