<svg xmlns="http://www.w3.org/2000/svg" width="15" height="14" viewBox="0 0 15 14">
  <path fill-rule="evenodd" d="M1290,58.2717715 L1290,64.2717715 C1290,65.1001986 1289.32843,65.7717715 1288.5,65.7717715 L1276.5,65.7717715 C1275.67157,65.7717715 1275,65.1001986 1275,64.2717715 L1275,58.2717715 L1275,56.965586 C1275,56.2302302 1275.40354,55.5541861 1276.0508,55.2051849 L1281.5508,52.2395989 C1282.14328,51.9201337 1282.85672,51.9201337 1283.4492,52.2395989 L1288.9492,55.2051849 C1289.59646,55.5541861 1290,56.2302302 1290,56.965586 L1290,58.2717715 Z M1278.15347,55.9450378 C1277.9796,56.0319693 1277.83485,56.1676887 1277.7369,56.335594 C1277.45862,56.8126459 1277.61976,57.4249637 1278.09681,57.7032439 L1281.74419,59.8308844 C1282.21124,60.1033266 1282.78876,60.1033266 1283.25581,59.8308844 L1286.90319,57.7032439 C1287.0711,57.6052992 1287.20681,57.4605415 1287.29375,57.2866786 C1287.54074,56.7927001 1287.34051,56.1920271 1286.84653,55.9450378 L1283.17082,54.1071817 C1282.74853,53.8960361 1282.25147,53.8960361 1281.82918,54.1071817 L1278.15347,55.9450378 Z" transform="translate(-1275 -52)"/>
</svg>
