<svg xmlns="http://www.w3.org/2000/svg" width="54" height="10" viewBox="0 0 54 10">
  <path fill="#010101" fill-rule="evenodd" d="M48.3449048,40.4543611 C48.4456887,40.4543611 48.6674132,40.2312373 49.0503919,39.9066937 C49.7155655,39.3590264 50.5016797,39.1156187 51.549832,39.1156187 C52.9608063,39.1156187 54.0694289,40.4543611 54.0694289,41.9350913 L54.0694289,45.6064909 C54.0694289,46.1338742 54.2911534,46.7829615 54.8353863,46.9452333 C55.3796193,47.1075051 55.5610302,47.2697769 55.5610302,47.4726166 C55.5610302,47.6754564 55.5408735,47.8782961 55.0167973,47.8782961 C54.5733483,47.8782961 53.5655095,47.7565923 53.2430011,47.7565923 C52.8398656,47.7565923 52.1948488,47.8782961 51.7513998,47.8782961 C51.2273236,47.8782961 51.1466965,47.6754564 51.1466965,47.4726166 C51.1466965,47.2697769 51.3885778,47.1075051 51.9328108,46.9452333 C52.2956327,46.8438134 52.3964166,46.1541582 52.3964166,45.6470588 L52.3964166,42.5436105 C52.3964166,41.346856 51.6909295,40.1703854 50.6427772,40.1703854 C49.4535274,40.1703854 48.6472564,40.9614604 48.6472564,42.4016227 L48.6472564,45.6470588 C48.6472564,46.1541582 48.7278835,46.8235294 49.1108623,46.9452333 C49.6550952,47.1075051 49.8768197,47.2697769 49.8768197,47.4726166 C49.8768197,47.6754564 49.8163494,47.8782961 49.2922732,47.8782961 C48.8488242,47.8782961 48.1433371,47.7565923 47.8208287,47.7565923 C47.4378499,47.7565923 46.7726764,47.8782961 46.3292273,47.8782961 C45.8051512,47.8782961 45.7245241,47.6754564 45.7245241,47.4726166 C45.7245241,47.2697769 45.9664054,47.1075051 46.5106383,46.9452333 C46.8734602,46.8438134 46.9742441,46.1541582 46.9742441,45.6470588 L46.9742441,42.5436105 C46.9742441,41.346856 46.268757,40.1703854 45.2206047,40.1703854 C44.0515118,40.1703854 43.2452408,40.8600406 43.2452408,42.4016227 L43.225084,45.6470588 C43.225084,46.1541582 43.3057111,46.8235294 43.6886898,46.9452333 C44.2329227,47.1075051 44.4546473,47.2697769 44.4546473,47.4726166 C44.4546473,47.6754564 44.3941769,47.8782961 43.8701008,47.8782961 C43.4266517,47.8782961 42.7211646,47.7565923 42.3986562,47.7565923 C41.9955207,47.7565923 41.0481523,47.8782961 40.6047032,47.8782961 C40.0806271,47.8782961 40,47.6754564 40,47.4726166 C40,47.2697769 40.2418813,47.1075051 40.7861142,46.9452333 C41.3303471,46.7829615 41.5520717,46.1541582 41.5520717,45.6470588 L41.5520717,41.7119675 C41.5520717,41.36714 41.2094065,40.8600406 40.7256439,40.6774848 C40.5039194,40.5963489 40.3023516,40.474645 40.3023516,40.2515213 C40.3023516,40.0283976 40.62486,39.8661258 40.8868981,39.7444219 C41.1086226,39.6227181 42.7816349,38.9533469 42.9832027,38.9533469 C43.225084,38.9533469 43.225084,39.1359026 43.225084,39.5212982 L43.225084,40.0283976 C43.225084,40.3326572 43.4669653,40.0486815 43.6282195,39.9066937 C44.2933931,39.3590264 45.0795073,39.1156187 46.1276596,39.1156187 C47.0145577,39.1156187 47.7805151,39.663286 48.2038074,40.3529412 C48.2642777,40.4340771 48.3045913,40.4543611 48.3449048,40.4543611 Z M58.2015677,45.1805274 C58.2015677,46.1744422 58.6651736,46.6409736 59.3908175,46.6409736 C59.9552072,46.6409736 60.6405375,46.356998 60.6405375,45.8701826 L60.6405375,43.9634888 C60.6405375,43.7403651 60.3986562,43.7403651 60.1769317,43.821501 L59.2094065,44.2068966 C58.5039194,44.4300203 58.2015677,44.8356998 58.2015677,45.1805274 Z M59.6931691,39.1156187 C61.406495,39.1156187 62.3337066,40.1095335 62.3337066,41.1845842 L62.3337066,45.9918864 C62.3337066,46.31643 62.7166853,46.5598377 63.0593505,46.5598377 C63.3415454,46.5598377 63.643897,46.296146 63.7849944,46.296146 C63.9059351,46.296146 63.9664054,46.5192698 63.9664054,46.7423935 C63.9664054,47.4726166 62.9585666,48 62.1522956,48 C61.4871221,48 61.0235162,47.5334686 60.7614782,47.168357 C60.6203807,46.9655172 60.600224,46.9858012 60.4591265,47.127789 C59.9955207,47.5943205 59.1892497,48 58.4031355,48 C57.4154535,48 56.4076148,47.0669371 56.4076148,46.0527383 C56.4076148,45.0385396 56.8913774,44.4097363 57.4960806,44.1460446 L60.1366181,43.030426 C60.4994401,42.8681542 60.600224,42.7667343 60.600224,42.5638945 L60.600224,41.5699797 C60.600224,40.8600406 59.8342665,40.3326572 59.1287794,40.3326572 C58.7054871,40.3326572 58.2015677,40.494929 58.2015677,40.9208925 C58.2015677,41.4279919 58.181411,41.5902637 58,41.7119675 C57.8790594,41.7931034 57.0727884,42.137931 56.8712206,42.137931 C56.75028,42.137931 56.7099664,41.6105477 56.7099664,41.4482759 C56.7099664,40.9817444 57.0526316,40.3732252 57.4759239,40.0689655 C58.181411,39.5821501 58.9473684,39.1156187 59.6931691,39.1156187 Z M67.0100784,47.7565923 C66.6270997,47.7565923 65.6595745,47.8782961 65.2161254,47.8782961 C64.6920493,47.8782961 64.6114222,47.6754564 64.6114222,47.4726166 C64.6114222,47.2697769 64.8533035,47.1075051 65.3975364,46.9452333 C65.9417693,46.7829615 66.1634938,46.1541582 66.1634938,45.6470588 L66.1634938,41.7119675 C66.1634938,41.36714 65.8208287,40.8600406 65.3370661,40.6774848 C65.1153415,40.5963489 64.9137738,40.474645 64.9137738,40.2515213 C64.9137738,40.0283976 65.2362822,39.8661258 65.4983203,39.7444219 C65.7200448,39.6227181 67.3930571,38.9533469 67.5946249,38.9533469 C67.8365062,38.9533469 67.8365062,39.1359026 67.8365062,39.5212982 L67.8365062,40.0283976 C67.8365062,40.3326572 68.1388578,40.0283976 68.2396417,39.9066937 C68.5621501,39.5618661 69.4087346,39.1156187 70.0134378,39.1156187 C70.8398656,39.1156187 71.162374,39.5010142 71.162374,39.9675456 C71.162374,40.2718053 70.8801792,40.7991886 70.5576708,41.1237323 C70.4972004,41.1845842 70.3359462,41.306288 70.2351624,41.306288 C69.9328108,41.306288 69.3281075,40.7383367 68.924972,40.7383367 C68.4613662,40.7383367 67.8768197,41.1643002 67.8768197,41.6916836 L67.8365062,45.6470588 C67.8365062,46.1541582 68.2799552,46.7829615 68.8241881,46.9452333 C69.3684211,47.1075051 69.6506159,47.2697769 69.6506159,47.4726166 C69.6506159,47.6754564 69.4893617,47.8782961 68.9652856,47.8782961 C68.5218365,47.8782961 67.3325868,47.7565923 67.0100784,47.7565923 Z M75.0929451,48 C73.9036954,48 72.9160134,47.4117647 72.9160134,45.6876268 L72.9160134,40.8600406 C72.9160134,40.6774848 73.0369541,40.5760649 72.2911534,40.5760649 C72.1097424,40.5760649 71.6461366,40.494929 71.6461366,40.2920892 C71.6461366,40.0081136 72.4927212,39.4401623 72.9966405,39.0141988 C73.2788354,38.7707911 74.0447928,38 74.3068309,38 C74.5487122,38 74.5890258,38.1622718 74.5890258,38.5070994 L74.5890258,39.0750507 C74.5890258,39.2778905 74.7704367,39.3793103 75.0324748,39.3793103 L76.987682,39.3793103 C77.3101904,39.3793103 77.3908175,39.643002 77.3908175,39.8458418 C77.3908175,40.0486815 77.1892497,40.5760649 76.9070549,40.5760649 L74.9115342,40.5760649 C74.6696529,40.5760649 74.5890258,40.6774848 74.5890258,40.9614604 L74.5890258,44.7545639 C74.5890258,46.1744422 74.9316909,46.6206897 75.6371781,46.6206897 C76.3829787,46.6206897 76.8868981,46.2555781 77.0884658,46.2555781 C77.2900336,46.2555781 77.3908175,46.336714 77.3908175,46.5395538 C77.3908175,47.0060852 76.3023516,48 75.0929451,48 Z M79.849944,41.7119675 C79.849944,41.36714 79.5072788,40.8600406 79.0235162,40.6774848 C78.8017917,40.5963489 78.600224,40.474645 78.600224,40.2515213 C78.600224,40.0283976 78.9227324,39.8661258 79.1847704,39.7444219 C79.406495,39.6227181 81.0795073,38.9533469 81.281075,38.9533469 C81.5229563,38.9533469 81.5229563,39.1359026 81.5229563,39.5415822 L81.5229563,45.6470588 C81.5229563,46.1541582 81.7446809,46.7829615 82.2889138,46.9452333 C82.8331467,47.1075051 83.1556551,47.2697769 83.1556551,47.4726166 C83.1556551,47.6754564 82.9944009,47.8782961 82.4703247,47.8782961 C82.0268757,47.8782961 81.019037,47.7565923 80.6965286,47.7565923 C80.2933931,47.7565923 79.3460246,47.8782961 78.9025756,47.8782961 C78.3784994,47.8782961 78.1970885,47.6754564 78.1970885,47.4726166 C78.1970885,47.2697769 78.5397536,47.1075051 79.0839866,46.9452333 C79.6282195,46.7829615 79.849944,46.1541582 79.849944,45.6470588 L79.849944,41.7119675 Z M92.5083987,45.6064909 C92.5083987,46.1338742 92.7301232,46.7829615 93.2743561,46.9452333 C93.818589,47.1075051 94,47.2697769 94,47.4726166 C94,47.6754564 93.9798432,47.8782961 93.4557671,47.8782961 C93.012318,47.8782961 92.0044793,47.7565923 91.6819709,47.7565923 C91.2788354,47.7565923 90.6338186,47.8782961 90.1903695,47.8782961 C89.6662934,47.8782961 89.5856663,47.6754564 89.5856663,47.4726166 C89.5856663,47.2697769 89.8275476,47.1075051 90.3717805,46.9452333 C90.7346025,46.8438134 90.8353863,46.1541582 90.8353863,45.6470588 L90.8353863,42.5436105 C90.8353863,41.346856 90.1298992,40.1703854 89.0817469,40.1703854 C87.912654,40.1703854 87.106383,40.8600406 87.106383,42.4016227 L87.0862262,45.6470588 C87.0862262,46.1541582 87.1668533,46.8235294 87.549832,46.9452333 C88.0940649,47.1075051 88.3157895,47.2697769 88.3157895,47.4726166 C88.3157895,47.6754564 88.2553191,47.8782961 87.731243,47.8782961 C87.287794,47.8782961 86.5823068,47.7565923 86.2597984,47.7565923 C85.8566629,47.7565923 84.9092945,47.8782961 84.4658455,47.8782961 C83.9417693,47.8782961 83.8611422,47.6754564 83.8611422,47.4726166 C83.8611422,47.2697769 84.1030235,47.1075051 84.6472564,46.9452333 C85.1914894,46.7829615 85.4132139,46.1541582 85.4132139,45.6470588 L85.4132139,41.7119675 C85.4132139,41.36714 85.0705487,40.8600406 84.5867861,40.6774848 C84.3650616,40.5963489 84.1634938,40.474645 84.1634938,40.2515213 C84.1634938,40.0283976 84.4860022,39.8661258 84.7480403,39.7444219 C84.9899216,39.6227181 86.6427772,38.9533469 86.8443449,38.9533469 C87.0862262,38.9533469 87.0862262,39.1359026 87.0862262,39.5212982 L87.0862262,40.0283976 C87.0862262,40.3326572 87.3281075,40.0486815 87.4893617,39.9066937 C88.1545353,39.3590264 88.9406495,39.1156187 89.9888018,39.1156187 C91.399776,39.1156187 92.5083987,40.4543611 92.5083987,41.9350913 L92.5083987,45.6064909 Z" transform="translate(-40 -38)"/>
</svg>
