<svg xmlns="http://www.w3.org/2000/svg" width="16" height="14" viewBox="0 0 16 14">
  <path fill="#141212" fill-rule="evenodd" d="M357.649547,7.11945392 C357.649547,7.62912655 357.955687,7.89988608 358.567976,7.93174061 L359.534743,7.97952218 C360.179258,8.01137672 360.751256,8.31399031 361.250755,8.88737201 C361.750254,9.46075372 362,10.113762 362,10.8464164 C362,11.7383435 361.677747,12.4869139 361.033233,13.0921502 C360.388718,13.6973864 359.583086,14 358.616314,14 C357.488413,14 356.561937,13.5620067 355.836858,12.6860068 C355.111779,11.810007 354.749245,10.6871513 354.749245,9.31740614 C354.749245,6.769043 355.76434,4.15700997 357.794562,1.48122867 C358.535754,0.493737952 359.180259,0 359.728097,0 C360.340386,0 360.646526,0.318540614 360.646526,0.955631399 C360.646526,1.21046771 360.469287,1.56086239 360.114804,2.00682594 C359.244709,3.08988027 358.51964,4.37996976 357.939577,5.87713311 C357.746223,6.38680573 357.649547,6.80090853 357.649547,7.11945392 Z M348.851964,7.11945392 C348.851964,7.62912655 349.158104,7.89988608 349.770393,7.93174061 L350.73716,7.97952218 C351.413901,8.01137672 352.002012,8.31399031 352.501511,8.88737201 C353.00101,9.46075372 353.250755,10.113762 353.250755,10.8464164 C353.250755,11.7383435 352.928503,12.4869139 352.283988,13.0921502 C351.639473,13.6973864 350.833842,14 349.867069,14 C348.739169,14 347.812692,13.5620067 347.087613,12.6860068 C346.362534,11.810007 346,10.6871513 346,9.31740614 C346,6.769043 347.015096,4.15700997 349.045317,1.48122867 C349.786509,0.493737952 350.431014,0 350.978852,0 C351.591141,0 351.897281,0.318540614 351.897281,0.955631399 C351.897281,1.21046771 351.720042,1.56086239 351.365559,2.00682594 C350.721044,2.80318942 350.140989,3.7269572 349.625378,4.778157 C349.109766,5.82935679 348.851964,6.6097813 348.851964,7.11945392 Z" transform="translate(-346)"/>
</svg>
