<svg xmlns="http://www.w3.org/2000/svg" width="14" height="8" viewBox="0 0 14 8">
  <path fill="#010101" fill-rule="evenodd" d="M7.23,3 L7.23,1.19786624 C7.23,0.991647617 7.29375436,0.7904718 7.41253049,0.621894365 C7.73063097,0.17041842 8.35449593,0.0622962439 8.80597187,0.380396725 L12.5209695,2.99790612 C12.6362447,3.0791266 12.7375372,3.17856156 12.8208772,3.29231387 C13.245199,3.87147893 13.1196737,4.68496578 12.5405087,5.1092876 L8.82100201,7.83436189 C8.6495523,7.9599735 8.44254007,8.02769181 8.23,8.02769181 C7.67771525,8.02769181 7.23,7.57997656 7.23,7.02769181 L7.23,5 L1,5 C0.44771525,5 6.76353751e-17,4.55228475 0,4 C-6.76353751e-17,3.44771525 0.44771525,3 1,3 L7.23,3 Z"/>
</svg>
