<svg xmlns="http://www.w3.org/2000/svg" width="14" height="8" viewBox="0 0 14 8">
  <path fill="#F0F1EA" fill-rule="evenodd" d="M123.23,7 L123.23,5.19786624 C123.23,4.99164762 123.293754,4.7904718 123.41253,4.62189437 C123.730631,4.17041842 124.354496,4.06229624 124.805972,4.38039673 L128.520969,6.99790612 C128.636245,7.0791266 128.737537,7.17856156 128.820877,7.29231387 C129.245199,7.87147893 129.119674,8.68496578 128.540509,9.1092876 L124.821002,11.8343619 C124.649552,11.9599735 124.44254,12.0276918 124.23,12.0276918 C123.677715,12.0276918 123.23,11.5799766 123.23,11.0276918 L123.23,9 L117,9 C116.447715,9 116,8.55228475 116,8 C116,7.44771525 116.447715,7 117,7 L123.23,7 Z" transform="translate(-116 -4)"/>
</svg>
