<svg xmlns="http://www.w3.org/2000/svg" width="14" height="14" viewBox="0 0 14 14">
  <path fill="#FFF" fill-rule="evenodd" d="M35.0451372,13.5070833 C34.6369415,13.5070833 34.30625,13.1761866 34.30625,12.7681499 L34.30625,0.858464828 C34.30625,0.450324227 34.6369935,0.119583333 35.0451372,0.119583333 L46.9549147,0.119583333 C47.3629546,0.119583333 47.69375,0.450324227 47.69375,0.858464828 L47.69375,12.7681499 C47.69375,13.1762385 47.3629026,13.5070833 46.9549147,13.5070833 L43.5434312,13.5070833 L43.5434312,8.32270553 L45.2835875,8.32270553 L45.5441513,6.30226151 L43.5434312,6.30226151 L43.5434312,5.01233566 C43.5434312,4.4273705 43.705868,4.02873603 44.5447003,4.02873603 L45.6145907,4.02826852 L45.6145907,2.22116718 C45.4295573,2.19654472 44.7944592,2.14153379 44.0555719,2.14153379 C42.5130202,2.14153379 41.4569475,3.08310901 41.4569475,4.81223924 L41.4569475,6.30226151 L39.7123238,6.30226151 L39.7123238,8.32270553 L41.4569475,8.32270553 L41.4569475,13.5070833 L35.0451372,13.5070833 Z" transform="translate(-34)"/>
</svg>
