<svg xmlns="http://www.w3.org/2000/svg" width="17" height="14" viewBox="0 0 17 14">
  <path fill="#FFF" fill-rule="evenodd" d="M1299,43 L1314,43 C1314.55228,43 1315,43.4477153 1315,44 C1315,44.5522847 1314.55228,45 1314,45 L1299,45 C1298.44772,45 1298,44.5522847 1298,44 C1298,43.4477153 1298.44772,43 1299,43 Z M1299,49 L1314,49 C1314.55228,49 1315,49.4477153 1315,50 C1315,50.5522847 1314.55228,51 1314,51 L1299,51 C1298.44772,51 1298,50.5522847 1298,50 C1298,49.4477153 1298.44772,49 1299,49 Z M1299,55 L1314,55 C1314.55228,55 1315,55.4477153 1315,56 C1315,56.5522847 1314.55228,57 1314,57 L1299,57 C1298.44772,57 1298,56.5522847 1298,56 C1298,55.4477153 1298.44772,55 1299,55 Z" transform="translate(-1298 -43)"/>
</svg>
