<svg xmlns="http://www.w3.org/2000/svg" width="17" height="14" viewBox="0 0 17 14">
  <path fill="#FFF" fill-rule="evenodd" d="M82.4184211,1.59657975 C81.8315878,1.86738462 81.1997576,2.05051884 80.5369922,2.13234477 C81.2138191,1.7115257 81.7331572,1.04425472 81.9778274,0.249374263 C81.3441224,0.639021548 80.6438596,0.922489948 79.8957878,1.07445239 C79.2995802,0.413026123 78.4474532,0 77.5043952,0 C75.6960862,0 74.229003,1.524495 74.229003,3.40454316 C74.229003,3.67145155 74.257126,3.93056699 74.313372,4.17994125 C71.590128,4.03772 69.176237,2.68369568 67.5591644,0.62148742 C67.276997,1.12608065 67.1157584,1.7115257 67.1157584,2.33496136 C67.1157584,3.51559263 67.6941548,4.55789912 68.5734673,5.16867124 C68.0372554,5.15211123 67.5310414,4.99722644 67.0885729,4.7439557 L67.0885729,4.78584278 C67.0885729,6.43599904 68.2181801,7.81242807 69.7180735,8.1241459 C69.4434055,8.20402359 69.1537386,8.24396244 68.8546974,8.24396244 C68.6437748,8.24396244 68.4375395,8.22350596 68.2378662,8.18356711 C68.655024,9.53564319 69.8643131,10.5204767 71.2985862,10.5467779 C70.1774159,11.4605008 68.7637663,12.0050329 67.2291879,12.0050329 C66.9648317,12.0050329 66.7032877,11.989447 66.4473684,11.9582752 C67.8975779,12.9226522 69.6205804,13.4866667 71.4701365,13.4866667 C77.4978332,13.4866667 80.7929116,8.29948718 80.7929116,3.80003515 C80.7929116,3.65196918 80.7900993,3.50390321 80.7844747,3.3587596 C81.4247417,2.87851932 81.9806397,2.27943662 82.4184211,1.59657975" transform="translate(-66)"/>
</svg>
