<svg xmlns="http://www.w3.org/2000/svg" width="17" height="13" viewBox="0 0 17 13">
  <path fill="#FFF" fill-rule="evenodd" d="M6.74475,8.95780394 L6.74421875,4.20404289 L11.3374063,6.58911864 L6.74475,8.95780394 Z M16.83,3.38029028 C16.83,3.38029028 16.6637187,2.21445298 16.15425,1.7010616 C15.5077187,1.02693799 14.7830937,1.02376564 14.4510625,0.984640038 C12.072125,0.813333333 8.50371875,0.813333333 8.50371875,0.813333333 L8.49628125,0.813333333 C8.49628125,0.813333333 4.927875,0.813333333 2.5489375,0.984640038 C2.216375,1.02376564 1.49228125,1.02693799 0.84521875,1.7010616 C0.33575,2.21445298 0.17,3.38029028 0.17,3.38029028 C0.17,3.38029028 0,4.74968647 0,6.11855393 L0,7.40229677 C0,8.77169295 0.17,10.1405604 0.17,10.1405604 C0.17,10.1405604 0.33575,11.3063977 0.84521875,11.8197891 C1.49228125,12.4939127 2.34175,12.4727637 2.72,12.5430841 C4.08,12.6731503 8.5,12.7133333 8.5,12.7133333 C8.5,12.7133333 12.072125,12.7080461 14.4510625,12.5367394 C14.7830937,12.4970851 15.5077187,12.4939127 16.15425,11.8197891 C16.6637187,11.3063977 16.83,10.1405604 16.83,10.1405604 C16.83,10.1405604 17,8.77169295 17,7.40229677 L17,6.11855393 C17,4.74968647 16.83,3.38029028 16.83,3.38029028 L16.83,3.38029028 Z"/>
</svg>
